<svg id="Layer_1" data-name="Layer 1" xmlns="http://www.w3.org/2000/svg" viewBox="0 0 493 479"><defs><style>.cls-1{fill:#fff;}</style></defs><title>Artboard 5 copy 12</title><path class="cls-1" d="M223.22,274.35a77.73,77.73,0,1,0-28.56,20.92,81.14,81.14,0,0,0,12.12-6.52l14.84,16.13,6.32,6.86,7.47-6.86L244,297Zm-28.56-6.08a54.27,54.27,0,1,1,23.77-44.89A54.17,54.17,0,0,1,194.66,268.27Z"/><path class="cls-1" d="M223.22,274.35a77.73,77.73,0,1,0-28.56,20.92,81.14,81.14,0,0,0,12.12-6.52l14.84,16.13,6.32,6.86,7.47-6.86L244,297Zm-28.56-6.08a54.27,54.27,0,1,1,23.77-44.89A54.17,54.17,0,0,1,194.66,268.27Z"/><path class="cls-1" d="M275.27,298.26a52.17,52.17,0,0,0,10.83,6.62H250.45l7.94-7.3-21.86-23.81a88.13,88.13,0,0,0-25.47-125.09H296.8a56.74,56.74,0,0,0-19.25,9.81c-11.35,9-17.12,21.5-17.12,37.12,0,27,17,42.85,50.46,47l16.54,2c9,1,15.41,2.92,19.08,5.77,3.36,2.58,5,6.32,5,11.41,0,4.38,0,17.62-28.49,17.62-10.12,0-17.83-1.66-22.89-5-4.82-3.12-7.61-8.21-8.56-15.55l-.37-2.95H256.32l.28,3.66C257.89,276.32,264.17,289.33,275.27,298.26Z"/><path class="cls-1" d="M395,148.68v156.2H358.06a56.28,56.28,0,0,0,11.34-6.56c12-9,18.06-22,18.06-38.74,0-13.58-4.21-24.48-12.56-32.43-8.19-7.77-20.17-12.73-35.59-14.8l-18.78-2.48c-9-1.12-15.55-3.13-19.45-5.94-3.47-2.52-5.13-6-5.13-10.56,0-5.2,1.94-9.1,6-11.92,4.38-3.06,11.17-4.59,20.23-4.59s15.76,1.53,20.07,4.59c4.08,2.85,6.28,7.43,6.83,14l.24,3.12h35.28l-.28-3.67c-1.29-16-7.33-28.42-18-36.94a52.53,52.53,0,0,0-18-9.27Z"/><path class="cls-1" d="M171.93,266.78H156.49V203l-10,3.77v-16.4l12.23-5.52h13.19Z"/><path class="cls-1" d="M89.61,336a5.14,5.14,0,0,1-2.07-2.09,6.5,6.5,0,0,1-.74-3.14v-4.59a6.46,6.46,0,0,1,.74-3.13A5.14,5.14,0,0,1,89.61,321a6.88,6.88,0,0,1,6.21,0,5.14,5.14,0,0,1,2.07,2.09,6.46,6.46,0,0,1,.74,3.13v4.59a6.5,6.5,0,0,1-.74,3.14A5.14,5.14,0,0,1,95.82,336a6.88,6.88,0,0,1-6.21,0Zm4.55-2.66a2.46,2.46,0,0,0,1-1,3.24,3.24,0,0,0,.34-1.49v-4.74a3.21,3.21,0,0,0-.34-1.49,2.34,2.34,0,0,0-1-1,3.16,3.16,0,0,0-2.89,0,2.27,2.27,0,0,0-1,1,3.09,3.09,0,0,0-.34,1.49v4.74a3.12,3.12,0,0,0,.34,1.49,2.37,2.37,0,0,0,1,1,3.16,3.16,0,0,0,2.89,0Z"/><path class="cls-1" d="M101.63,320.39h3.73l6,12.41-.27.29v-12.7H114v16.18h-3.76l-6-12.21.27-.29v12.5h-2.92Z"/><path class="cls-1" d="M117.6,320.39h3.05v16.19H117.6Zm1.1,0h9.74v2.94H118.7Zm0,6.68h8.52V330H118.7Zm0,6.57h9.74v2.94H118.7Z"/><path class="cls-1" d="M139.83,336a5.11,5.11,0,0,1-2.08-2.09,6.5,6.5,0,0,1-.73-3.14v-4.59a6.46,6.46,0,0,1,.73-3.13,5.11,5.11,0,0,1,2.08-2.09,6.86,6.86,0,0,1,6.2,0,5.14,5.14,0,0,1,2.07,2.09,6.46,6.46,0,0,1,.74,3.13v4.59a6.5,6.5,0,0,1-.74,3.14A5.14,5.14,0,0,1,146,336a6.86,6.86,0,0,1-6.2,0Zm4.54-2.66a2.46,2.46,0,0,0,1-1,3.24,3.24,0,0,0,.34-1.49v-4.74a3.21,3.21,0,0,0-.34-1.49,2.34,2.34,0,0,0-1-1,2.79,2.79,0,0,0-1.44-.35,2.86,2.86,0,0,0-1.45.35,2.27,2.27,0,0,0-1,1,3.09,3.09,0,0,0-.34,1.49v4.74a3.12,3.12,0,0,0,.34,1.49,2.37,2.37,0,0,0,1,1,3,3,0,0,0,1.45.35A2.9,2.9,0,0,0,144.37,333.35Zm-1.92-1.25,1.62-2.06,6.26,4.74-1.62,2.07Z"/><path class="cls-1" d="M154.82,336a4.68,4.68,0,0,1-2-2.06,7.06,7.06,0,0,1-.69-3.25V320.39h3V330.8a3,3,0,0,0,.75,2.16,3.28,3.28,0,0,0,4.22,0,3,3,0,0,0,.75-2.16V320.39h3.06v10.34a7.06,7.06,0,0,1-.7,3.25,4.7,4.7,0,0,1-2,2.06,7.54,7.54,0,0,1-6.39,0Z"/><path class="cls-1" d="M171.24,320.39h1.94l6.19,16.19h-3.29l-3.87-11.05-3.88,11.05h-3.28ZM168,331.05h8.52V334H168Z"/><path class="cls-1" d="M181.37,320.39h3v16.19h-3Zm1.36,13.25h9.48v2.94h-9.48Z"/><path class="cls-1" d="M197.38,336.58h-3.16V320.39h3.16Z"/><path class="cls-1" d="M199.38,320.39h11.87v2.94H199.38Zm4.41,1.33h3.05v14.86h-3.05Z"/><path class="cls-1" d="M219.4,330.34v6.24h-3.05v-6.24l-4.76-9.95h3.19l3.1,7,3.09-7h3.2Z"/><path class="cls-1" d="M235.44,336.75l-1.1-.23a10,10,0,0,1-2.09-.69,8.23,8.23,0,0,1-1.74-1.08l1.42-2.52a6.86,6.86,0,0,0,2.16,1.19,7.91,7.91,0,0,0,2.51.41,4.52,4.52,0,0,0,2.32-.5,1.6,1.6,0,0,0,.82-1.44h0a1.41,1.41,0,0,0-.36-1,2.28,2.28,0,0,0-1-.56,12.28,12.28,0,0,0-1.52-.32h-.12l-.24,0a14.55,14.55,0,0,1-2.7-.64,3.89,3.89,0,0,1-1.81-1.34,4.4,4.4,0,0,1-.75-2.74h0a4.91,4.91,0,0,1,.7-2.68,4.47,4.47,0,0,1,2-1.7,8,8,0,0,1,3.23-.58,7.75,7.75,0,0,1,1.77.2,8.82,8.82,0,0,1,1.78.58,9.47,9.47,0,0,1,1.65.91l-1.29,2.58a8.44,8.44,0,0,0-2-1,5.86,5.86,0,0,0-1.95-.36,4.19,4.19,0,0,0-2.17.47,1.43,1.43,0,0,0-.77,1.29h0a1.5,1.5,0,0,0,.4,1.11,2.49,2.49,0,0,0,1,.6c.39.12,1,.26,1.66.4l.09,0h.09l.13,0,.12,0a13.2,13.2,0,0,1,2.57.73,3.9,3.9,0,0,1,1.72,1.38,4.34,4.34,0,0,1,.69,2.6v0a4.75,4.75,0,0,1-.72,2.65,4.64,4.64,0,0,1-2.11,1.68,8.61,8.61,0,0,1-3.34.58Z"/><path class="cls-1" d="M247.59,336a5.11,5.11,0,0,1-2.08-2.09,6.5,6.5,0,0,1-.74-3.14v-4.59a6.46,6.46,0,0,1,.74-3.13,5.11,5.11,0,0,1,2.08-2.09,6.86,6.86,0,0,1,6.2,0,5.14,5.14,0,0,1,2.07,2.09,6.46,6.46,0,0,1,.74,3.13v4.59a6.5,6.5,0,0,1-.74,3.14,5.14,5.14,0,0,1-2.07,2.09,6.86,6.86,0,0,1-6.2,0Zm4.54-2.66a2.46,2.46,0,0,0,1-1,3.24,3.24,0,0,0,.34-1.49v-4.74a3.21,3.21,0,0,0-.34-1.49,2.34,2.34,0,0,0-1-1,2.79,2.79,0,0,0-1.44-.35,2.83,2.83,0,0,0-1.45.35,2.27,2.27,0,0,0-1,1,3.09,3.09,0,0,0-.34,1.49v4.74a3.12,3.12,0,0,0,.34,1.49,2.37,2.37,0,0,0,1,1,2.94,2.94,0,0,0,1.45.35A2.9,2.9,0,0,0,252.13,333.35Z"/><path class="cls-1" d="M259.6,320.39h3v16.19h-3ZM261,333.64h9.49v2.94H261Z"/><path class="cls-1" d="M274.71,336a4.71,4.71,0,0,1-2-2.06,7.06,7.06,0,0,1-.69-3.25V320.39h3.05V330.8a3,3,0,0,0,.74,2.16,3.29,3.29,0,0,0,4.23,0,3,3,0,0,0,.75-2.16V320.39h3.05v10.34a6.93,6.93,0,0,1-.7,3.25,4.73,4.73,0,0,1-2,2.06,7.57,7.57,0,0,1-6.4,0Z"/><path class="cls-1" d="M284.94,320.39h11.87v2.94H284.94Zm4.41,1.33h3v14.86h-3Z"/><path class="cls-1" d="M301.53,336.58h-3.16V320.39h3.16Z"/><path class="cls-1" d="M307.35,336a5.11,5.11,0,0,1-2.08-2.09,6.5,6.5,0,0,1-.73-3.14v-4.59a6.46,6.46,0,0,1,.73-3.13,5.11,5.11,0,0,1,2.08-2.09,6.86,6.86,0,0,1,6.2,0,5.17,5.17,0,0,1,2.08,2.09,6.46,6.46,0,0,1,.73,3.13v4.59a6.5,6.5,0,0,1-.73,3.14,5.17,5.17,0,0,1-2.08,2.09,6.86,6.86,0,0,1-6.2,0Zm4.55-2.66a2.5,2.5,0,0,0,1-1,3.12,3.12,0,0,0,.34-1.49v-4.74a3.09,3.09,0,0,0-.34-1.49,2.38,2.38,0,0,0-1-1,3.18,3.18,0,0,0-2.9,0,2.38,2.38,0,0,0-1,1,3.09,3.09,0,0,0-.34,1.49v4.74a3.12,3.12,0,0,0,.34,1.49,2.5,2.5,0,0,0,1,1,3.18,3.18,0,0,0,2.9,0Z"/><path class="cls-1" d="M319.37,320.39h3.73l6,12.41-.27.29v-12.7h2.92v16.18H328l-6-12.21.26-.29v12.5h-2.91Z"/><path class="cls-1" d="M339.26,336.75l-1.11-.23a10.16,10.16,0,0,1-2.08-.69,8,8,0,0,1-1.74-1.08l1.41-2.52a7.08,7.08,0,0,0,2.16,1.19,8,8,0,0,0,2.52.41,4.52,4.52,0,0,0,2.32-.5,1.6,1.6,0,0,0,.82-1.44h0a1.38,1.38,0,0,0-.37-1,2.19,2.19,0,0,0-.95-.56,12.28,12.28,0,0,0-1.52-.32h-.12l-.25,0a14.62,14.62,0,0,1-2.69-.64,4,4,0,0,1-1.82-1.34,4.46,4.46,0,0,1-.74-2.74h0a4.91,4.91,0,0,1,.7-2.68,4.47,4.47,0,0,1,2-1.7,8,8,0,0,1,3.23-.58,7.75,7.75,0,0,1,1.77.2,8.82,8.82,0,0,1,1.78.58,9.47,9.47,0,0,1,1.65.91L345,324.5a8.18,8.18,0,0,0-2-1,5.86,5.86,0,0,0-1.95-.36,4.19,4.19,0,0,0-2.17.47,1.42,1.42,0,0,0-.77,1.29h0a1.5,1.5,0,0,0,.4,1.11,2.42,2.42,0,0,0,1,.6,16.46,16.46,0,0,0,1.66.4l.09,0h.09l.12,0,.13,0a13.2,13.2,0,0,1,2.57.73,4,4,0,0,1,1.72,1.38,4.34,4.34,0,0,1,.69,2.6v0a4.68,4.68,0,0,1-.73,2.65,4.53,4.53,0,0,1-2.11,1.68,8.52,8.52,0,0,1-3.33.58Z"/><path class="cls-1" d="M355.5,320.39h3.05v16.19H355.5Zm1.35,13.25h9.49v2.94h-9.49Z"/><path class="cls-1" d="M365.67,320.39h11.87v2.94H365.67Zm4.41,1.33h3.05v14.86h-3.05Z"/><path class="cls-1" d="M379.32,320.39h3.05v16.19h-3.05Zm1.54,13.25h3.88a3.44,3.44,0,0,0,2.33-.72,2.58,2.58,0,0,0,.82-2.05v-4.76a2.57,2.57,0,0,0-.82-2.05,3.39,3.39,0,0,0-2.33-.73h-3.88v-2.94h3.82a8,8,0,0,1,3.45.68,4.89,4.89,0,0,1,2.18,2,6.21,6.21,0,0,1,.74,3.14v4.59a6.19,6.19,0,0,1-.71,3.05,4.89,4.89,0,0,1-2.16,2,7.77,7.77,0,0,1-3.52.72h-3.8Z"/><path class="cls-1" d="M392.89,333.53h3.05v3.05h-3.05Z"/></svg>