<svg id="Layer_1" data-name="Layer 1" xmlns="http://www.w3.org/2000/svg" viewBox="0 0 493 479"><defs><style>.cls-1{fill:#010923;}</style></defs><title>Artboard 5 copy 6</title><path class="cls-1" d="M223.22,274.35a77.73,77.73,0,1,0-28.56,20.92,81.14,81.14,0,0,0,12.12-6.52l14.84,16.13,6.32,6.86,7.47-6.86L244,297Zm-28.56-6.08a54.27,54.27,0,1,1,23.77-44.89A54.17,54.17,0,0,1,194.66,268.27Z"/><path class="cls-1" d="M223.22,274.35a77.73,77.73,0,1,0-28.56,20.92,81.14,81.14,0,0,0,12.12-6.52l14.84,16.13,6.32,6.86,7.47-6.86L244,297Zm-28.56-6.08a54.27,54.27,0,1,1,23.77-44.89A54.17,54.17,0,0,1,194.66,268.27Z"/><path class="cls-1" d="M275.27,298.26a52.17,52.17,0,0,0,10.83,6.62H250.45l7.94-7.3-21.86-23.81a88.13,88.13,0,0,0-25.47-125.09H296.8a56.74,56.74,0,0,0-19.25,9.81c-11.35,9-17.12,21.5-17.12,37.12,0,27,17,42.85,50.46,47l16.54,2c9,1,15.41,2.92,19.08,5.77,3.36,2.58,5,6.32,5,11.41,0,4.38,0,17.62-28.49,17.62-10.12,0-17.83-1.66-22.89-5-4.82-3.12-7.61-8.21-8.56-15.55l-.37-2.95H256.32l.28,3.66C257.89,276.32,264.17,289.33,275.27,298.26Z"/><path class="cls-1" d="M395,148.68v156.2H358.06a56.28,56.28,0,0,0,11.34-6.56c12-9,18.06-22,18.06-38.74,0-13.58-4.21-24.48-12.56-32.43-8.19-7.77-20.17-12.73-35.59-14.8l-18.78-2.48c-9-1.12-15.55-3.13-19.45-5.94-3.47-2.52-5.13-6-5.13-10.56,0-5.2,1.94-9.1,6-11.92,4.38-3.06,11.17-4.59,20.23-4.59s15.76,1.53,20.07,4.59c4.08,2.85,6.28,7.43,6.83,14l.24,3.12h35.28l-.28-3.67c-1.29-16-7.33-28.42-18-36.94a52.53,52.53,0,0,0-18-9.27Z"/><path class="cls-1" d="M171.93,266.78H156.49V203l-10,3.77v-16.4l12.23-5.52h13.19Z"/></svg>